<svg width="30" height="40" viewBox="0 0 30 40" fill="none" xmlns="http://www.w3.org/2000/svg">
<path d="M15 16.25C15.3315 16.25 15.6495 16.3817 15.8839 16.6161C16.1183 16.8505 16.25 17.1685 16.25 17.5V21.25H20C20.3315 21.25 20.6495 21.3817 20.8839 21.6161C21.1183 21.8505 21.25 22.1685 21.25 22.5C21.25 22.8315 21.1183 23.1495 20.8839 23.3839C20.6495 23.6183 20.3315 23.75 20 23.75H16.25V27.5C16.25 27.8315 16.1183 28.1495 15.8839 28.3839C15.6495 28.6183 15.3315 28.75 15 28.75C14.6685 28.75 14.3505 28.6183 14.1161 28.3839C13.8817 28.1495 13.75 27.8315 13.75 27.5V23.75H10C9.66848 23.75 9.35054 23.6183 9.11612 23.3839C8.8817 23.1495 8.75 22.8315 8.75 22.5C8.75 22.1685 8.8817 21.8505 9.11612 21.6161C9.35054 21.3817 9.66848 21.25 10 21.25H13.75V17.5C13.75 17.1685 13.8817 16.8505 14.1161 16.6161C14.3505 16.3817 14.6685 16.25 15 16.25Z" fill="#2A26F4"/>
<path d="M30 11.25V35C30 36.3261 29.4732 37.5979 28.5355 38.5355C27.5979 39.4732 26.3261 40 25 40H5C3.67392 40 2.40215 39.4732 1.46447 38.5355C0.526784 37.5979 0 36.3261 0 35V5C0 3.67392 0.526784 2.40215 1.46447 1.46447C2.40215 0.526784 3.67392 0 5 0L18.75 0L30 11.25ZM22.5 11.25C21.5054 11.25 20.5516 10.8549 19.8483 10.1517C19.1451 9.44839 18.75 8.49456 18.75 7.5V2.5H5C4.33696 2.5 3.70107 2.76339 3.23223 3.23223C2.76339 3.70107 2.5 4.33696 2.5 5V35C2.5 35.663 2.76339 36.2989 3.23223 36.7678C3.70107 37.2366 4.33696 37.5 5 37.5H25C25.663 37.5 26.2989 37.2366 26.7678 36.7678C27.2366 36.2989 27.5 35.663 27.5 35V11.25H22.5Z" fill="#2A26F4"/>
</svg>
