<svg width="29" height="29" viewBox="0 0 29 29" fill="none" xmlns="http://www.w3.org/2000/svg">
<path d="M14.25 0.353099C13.9581 0.346497 13.6677 0.398289 13.3961 0.505434C13.1244 0.612578 12.8769 0.772916 12.6681 0.977034C12.4592 1.18115 12.2933 1.42494 12.1799 1.69407C12.0666 1.96321 12.0082 2.25228 12.0081 2.5443C12.0081 2.83632 12.0663 3.12542 12.1795 3.39461C12.2927 3.6638 12.4585 3.90767 12.6673 4.11189C12.876 4.31611 13.1235 4.47658 13.3951 4.58386C13.6667 4.69114 13.957 4.74307 14.2489 4.73662C14.8217 4.72395 15.3668 4.48755 15.7675 4.07801C16.1682 3.66847 16.3926 3.11834 16.3928 2.54539C16.3929 1.97245 16.1687 1.42221 15.7683 1.01247C15.3678 0.602731 14.8228 0.366053 14.25 0.353099ZM19.9018 1.72329C19.5806 1.74083 19.2068 1.89758 18.9426 2.34043C18.1885 3.60429 19.3723 4.3705 19.7308 4.56562C23.2867 6.51348 25.7256 10.2711 25.7256 14.6031C25.7256 20.9279 20.5748 26.0787 14.25 26.0787C7.9252 26.0787 2.77437 20.9279 2.77437 14.6031C2.77437 13.1496 3.06485 11.7706 3.56251 10.4925C3.62718 10.327 4.23774 9.20673 3.01443 8.43723C2.17697 7.91108 1.36362 8.50739 1.1992 8.88227C0.406626 10.6853 -0.00177446 12.6336 5.79525e-06 14.6031C5.79525e-06 22.4735 6.37962 28.8531 14.25 28.8531C22.1204 28.8531 28.5 22.4735 28.5 14.6031C28.5 8.99846 25.2598 4.14798 20.5529 1.82633C20.5036 1.80112 20.224 1.70575 19.9018 1.72329ZM3.69953 4.01864C3.35533 4.36283 12.1695 15.5019 12.4348 15.8363C12.4435 15.8494 12.4589 15.8571 12.4688 15.8703L12.5718 16.0073C12.973 16.4896 13.5737 16.7943 14.25 16.7954C14.8312 16.7945 15.3883 16.5633 15.7992 16.1523C16.2102 15.7414 16.4414 15.1843 16.4423 14.6031C16.4427 14.2826 16.3723 13.9659 16.236 13.6758C16.0998 13.3857 15.9011 13.1293 15.6542 12.9249C15.6542 12.9249 4.0492 3.66896 3.69953 4.01864Z" fill="#D43228"/>
</svg>
